<svg xmlns="http://www.w3.org/2000/svg" viewBox="0 0 512 512">
  <defs>
    <linearGradient id="g" x1="0%" y1="0%" x2="100%" y2="100%">
      <stop offset="0%" stop-color="#a78bfa"/>
      <stop offset="50%" stop-color="#6366f1"/>
      <stop offset="100%" stop-color="#06b6d4"/>
    </linearGradient>
  </defs>
  <!-- Ghost body -->
  <path d="M256 48c-97 0-176 79-176 176v192c0 8 10 13 16 7l40-40c6-6 16-6 22 0l40 40c6 6 16 6 22 0l36-36c6-6 16-6 22 0l36 36c6 6 16 6 22 0l40-40c6-6 16-6 22 0l40 40c6 6 16 1 16-7V224c0-97-79-176-176-176z" fill="url(#g)"/>
  <!-- Eyes -->
  <ellipse cx="200" cy="240" rx="28" ry="36" fill="#0f0f23" opacity="0.9"/>
  <ellipse cx="312" cy="240" rx="28" ry="36" fill="#0f0f23" opacity="0.9"/>
  <!-- Eye shine -->
  <ellipse cx="210" cy="228" rx="10" ry="12" fill="white" opacity="0.7"/>
  <ellipse cx="322" cy="228" rx="10" ry="12" fill="white" opacity="0.7"/>
</svg>
